<?xml version="1.0" standalone="no"?><!DOCTYPE svg PUBLIC "-//W3C//DTD SVG 1.1//EN" "http://www.w3.org/Graphics/SVG/1.1/DTD/svg11.dtd"><svg t="1615610501967" class="icon" viewBox="0 0 1024 1024" version="1.1" xmlns="http://www.w3.org/2000/svg" p-id="1369" width="48" height="48" xmlns:xlink="http://www.w3.org/1999/xlink"><defs><style type="text/css"></style></defs><path d="M512 65C265.1 65 65 265.1 65 512s200.1 447 447 447 447-200.1 447-447S758.9 65 512 65z m266.3 433c0 17.6-14.4 32-32 32H558v188.3c0 17.6-14.4 32-32 32s-32-14.4-32-32V530H305.7c-17.6 0-32-14.4-32-32s14.4-32 32-32H494V277.7c0-17.6 14.4-32 32-32s32 14.4 32 32V466h188.3c17.6 0 32 14.4 32 32z" fill="#81C1ED" p-id="1370"></path></svg>