<?xml version="1.0" standalone="no"?><!DOCTYPE svg PUBLIC "-//W3C//DTD SVG 1.1//EN" "http://www.w3.org/Graphics/SVG/1.1/DTD/svg11.dtd"><svg t="1604538476236" class="icon" viewBox="0 0 1024 1024" version="1.1" xmlns="http://www.w3.org/2000/svg" p-id="5306" xmlns:xlink="http://www.w3.org/1999/xlink" width="16" height="16"><defs><style type="text/css"></style></defs><path d="M623.17966 434.370968c0 29.570479-12.048407 56.43943-31.472805 75.843362-19.49296 19.513426-46.361911 31.596625-75.897597 31.596625-29.674856 0-56.510038-12.048407-75.933413-31.490202-19.441794-19.441794-31.43699-46.309722-31.43699-75.949786 0-29.642111 11.995195-56.511062 31.419594-75.91704 19.441794-19.476587 46.25651-31.490202 75.950809-31.490202l0.019443 0c29.517267 0 56.349379 12.0832 75.80857 31.490202l0.055259 0c19.386536 19.36914 31.398104 46.240137 31.41857 75.91704L623.17966 434.370968 623.17966 434.370968 623.17966 434.370968zM565.97582 484.623489c12.831236-12.793374 20.792559-30.635741 20.792559-50.252521l0 0 0.088004 0c0-19.548218-8.011464-37.321-20.896936-50.186006l0.035816-0.069585-0.035816 0c-12.775978-12.795421-30.53341-20.756743-50.130747-20.756743l-0.019443 0c-19.741623 0-37.459147 7.888667-50.219775 20.685111-12.82919 12.831236-20.75572 30.635741-20.75572 50.328245 0 19.689435 7.92653 37.531801 20.75572 50.359968 12.760628 12.758582 30.512944 20.685111 50.219775 20.685111C535.412734 505.417071 553.18347 497.454726 565.97582 484.623489z" p-id="5307"></path><path d="M780.328793 402.964678c0-74.076112-29.941939-141.109832-78.364789-189.497888-48.495504-48.460712-115.597785-78.419024-189.782368-78.419024l-0.017396 0c-74.024947 0-140.968615 29.957289-189.32188 78.311577-48.548716 48.565089-78.596056 115.6336-78.596056 189.604312l0.143263 0 0 0.034792c0 29.212322 4.572132 57.17928 13.022595 83.187631 8.770757 27.004027 21.74014 52.124148 38.160111 74.502831l1.299599 1.921769 215.294414 297.768801 213.017558-294.38882c1.208525-2.27788 2.63092-4.41352 4.27128-6.334265 16.043395-22.200628 28.835745-46.89403 37.606503-73.506131C775.649214 460.106096 780.328793 432.140161 780.328793 402.964678L780.328793 402.964678zM753.198899 161.984255c61.784158 61.730946 100.016925 146.978493 100.016925 240.981447 0 36.96796-5.996574 72.584132-17.008372 105.957217-10.853186 32.912597-26.649963 63.6169-46.449915 91.367941-0.748037 1.426489-1.601474 2.777253-2.563382 4.130064L541.658995 943.710372l-0.068562 0c-2.225691 3.021823-4.967128 5.796006-8.18338 8.111748-16.278755 11.704576-38.960337 8.03807-50.669006-8.256034L238.02051 605.131097l-1.102101-1.425466c-20.956288-28.639271-37.501102-60.663638-48.656163-94.996584-10.886955-33.44574-16.740266-69.02405-16.740266-105.709577l0-0.034792 0.143263 0c0-94.072539 38.105876-179.2505 99.658767-240.804415 61.729923-61.764716 146.908908-99.979062 240.84023-99.979062l0.017396 0C606.273618 62.181201 691.485349 100.322893 753.198899 161.984255z" p-id="5308"></path></svg>