<?xml version="1.0" standalone="no"?><!DOCTYPE svg PUBLIC "-//W3C//DTD SVG 1.1//EN" "http://www.w3.org/Graphics/SVG/1.1/DTD/svg11.dtd"><svg t="1604691381612" class="icon" viewBox="0 0 1024 1024" version="1.1" xmlns="http://www.w3.org/2000/svg" p-id="3565" xmlns:xlink="http://www.w3.org/1999/xlink" width="16" height="16"><defs><style type="text/css"></style></defs><path d="M512 481.6c216 0 385.6-91.2 385.6-206.4 0-116.8-169.6-206.4-385.6-206.4-216 0-385.6 89.6-385.6 206.4 0 115.2 169.6 206.4 385.6 206.4z m0-364.8c184 0 337.6 72 337.6 158.4S694.4 433.6 512 433.6c-182.4 0-337.6-72-337.6-158.4S329.6 116.8 512 116.8z" fill="#2c2c2c" opacity=".4" p-id="3566"></path><path d="M844.8 436.8c-11.2 6.4-14.4 22.4-8 33.6 8 14.4 12.8 27.2 12.8 41.6 0 86.4-155.2 158.4-337.6 158.4-182.4 0-337.6-72-337.6-158.4 0-14.4 4.8-28.8 12.8-41.6a25.6 25.6 0 0 0-8-33.6 25.6 25.6 0 0 0-33.6 8c-12.8 20.8-19.2 44.8-19.2 67.2 0 116.8 169.6 208 385.6 208 216 0 385.6-91.2 385.6-208 0-22.4-6.4-46.4-20.8-67.2a23.296 23.296 0 0 0-32-8z" fill="#2c2c2c" opacity=".4" p-id="3567"></path><path d="M848 676.8c-11.2 6.4-16 20.8-8 32 8 12.8 11.2 25.6 11.2 40 0 86.4-155.2 158.4-337.6 158.4-182.4 0-337.6-72-337.6-158.4 0-12.8 3.2-27.2 11.2-40A23.296 23.296 0 1 0 147.2 684.8c-11.2 20.8-17.6 41.6-17.6 64 0 115.2 169.6 206.4 385.6 206.4 216 0 385.6-91.2 385.6-206.4 0-22.4-6.4-43.2-17.6-64-9.6-9.6-24-14.4-35.2-8z" fill="#2c2c2c" opacity=".4" p-id="3568"></path></svg>