<?xml version="1.0" standalone="no"?><!DOCTYPE svg PUBLIC "-//W3C//DTD SVG 1.1//EN" "http://www.w3.org/Graphics/SVG/1.1/DTD/svg11.dtd"><svg t="1604591202480" class="icon" viewBox="0 0 1260 1024" version="1.1" xmlns="http://www.w3.org/2000/svg" p-id="3879" xmlns:xlink="http://www.w3.org/1999/xlink" width="19.6875" height="16"><defs><style type="text/css"></style></defs><path d="M1130.16776943 62H101.46776943A40.15384629 40.15384629 0 0 0 62.00623057 102.84615371v818.30769258c0 22.56923057 17.65384628 40.84615372 39.53076943 40.84615371H1130.237a40.15384629 40.15384629 0 0 0 39.53076943-40.84615371V102.84615371a40.15384629 40.15384629 0 0 0-39.53076943-40.84615371z m-49.5 807.92307685H151.037v-50.95384628L322.24469258 608.92307685l185.53846114 227.56153887 288.69230741-353.90769257 284.1923083 348.50769257v38.83846113z m0-165.87692314l-276.64615371-339.3a9.62307685 9.62307685 0 0 0-15.0923083 1e-8L507.85238428 709.30769258 329.72161572 491.23076943a9.62307685 9.62307685 0 0 0-15.0923083 0l-163.66153799 200.76923057v-537.92307685h929.63076944v550.03846112zM358.72930742 440.41538427c60.09230742 0 108.76153886-50.4 108.76153886-112.5 0-62.16923057-48.66923057-112.5-108.76153886-112.5s-108.83076943 50.33076943-108.83076856 112.5c0 62.1 48.73846114 112.5 108.83076856 112.5z m0-148.29230742c19.17692315 0 34.61538427 15.92307685 34.61538516 35.79230742a35.16923057 35.16923057 0 0 1-34.61538516 35.79230831c-19.17692315 0-34.61538427-15.92307685-34.61538427-35.79230831 0-19.8 15.43846113-35.79230742 34.61538427-35.79230742z" p-id="3880" fill="#8a8a8a"></path></svg>