<?xml version="1.0" standalone="no"?><!DOCTYPE svg PUBLIC "-//W3C//DTD SVG 1.1//EN" "http://www.w3.org/Graphics/SVG/1.1/DTD/svg11.dtd"><svg t="1604587605004" class="icon" viewBox="0 0 1024 1024" version="1.1" xmlns="http://www.w3.org/2000/svg" p-id="2871" xmlns:xlink="http://www.w3.org/1999/xlink" width="16" height="16"><defs><style type="text/css"></style></defs><path d="M235.097 699.133c12.288 36.45 51.285 64.49 89.676 64.49h555.656l5.22-18.165 123.439-429.613c12.3-42.813-15.9-80.631-60.036-80.631H424.585c-13.793 0-24.975 11.265-24.975 25.162 0 13.897 11.182 25.162 24.975 25.162h524.467c10.872 0 15.11 5.682 12.054 16.314L837.668 731.465l23.99-18.166H324.774c-17.03 0-36.983-14.347-42.378-30.35L73.6 63.566c-4.436-13.158-18.62-20.203-31.68-15.734-13.061 4.47-20.054 18.76-15.618 31.918l208.795 619.383zM399.61 902.017c0-55.587-44.728-100.65-99.903-100.65-55.174 0-99.902 45.063-99.902 100.65s44.728 100.65 99.902 100.65c55.175 0 99.903-45.063 99.903-100.65z m-149.854 0c0-27.794 22.364-50.325 49.951-50.325 27.588 0 49.952 22.531 49.952 50.325 0 27.794-22.364 50.325-49.952 50.325-27.587 0-49.95-22.531-49.95-50.325zM924.098 902.017c0-55.587-44.728-100.65-99.903-100.65-55.174 0-99.902 45.063-99.902 100.65s44.728 100.65 99.902 100.65c55.175 0 99.903-45.063 99.903-100.65z m-149.854 0c0-27.794 22.364-50.325 49.951-50.325s49.951 22.531 49.951 50.325c0 27.794-22.364 50.325-49.95 50.325-27.588 0-49.952-22.531-49.952-50.325z" fill="#ffffff" p-id="2872"></path></svg>