<?xml version="1.0" standalone="no"?><!DOCTYPE svg PUBLIC "-//W3C//DTD SVG 1.1//EN" "http://www.w3.org/Graphics/SVG/1.1/DTD/svg11.dtd"><svg t="1604590783246" class="icon" viewBox="0 0 1024 1024" version="1.1" xmlns="http://www.w3.org/2000/svg" p-id="1225" xmlns:xlink="http://www.w3.org/1999/xlink" width="16" height="16"><defs><style type="text/css"></style></defs><path d="M315.080348 551.357217H157.540174A158.052174 158.052174 0 0 0 0 708.87513v157.540174A158.052174 158.052174 0 0 0 157.540174 1024h157.540174a158.052174 158.052174 0 0 0 157.517913-157.540174v-157.540174a158.052174 158.052174 0 0 0-157.517913-157.562435z m78.758956 315.058087a78.981565 78.981565 0 0 1-78.758956 78.758957H157.540174a78.981565 78.981565 0 0 1-78.758957-78.758957v-157.540174a78.981565 78.981565 0 0 1 78.758957-78.758956h157.540174a78.981565 78.981565 0 0 1 78.758956 78.758956v157.540174zM866.437565 0h-157.540174a158.052174 158.052174 0 0 0-157.540174 157.517913v157.540174a158.052174 158.052174 0 0 0 157.540174 157.517913h157.540174A158.052174 158.052174 0 0 0 1024 315.058087V157.517913A158.052174 158.052174 0 0 0 866.437565 0z m78.758957 315.058087a78.981565 78.981565 0 0 1-78.758957 78.758956h-157.540174a78.981565 78.981565 0 0 1-78.758956-78.758956V157.517913a78.981565 78.981565 0 0 1 78.758956-78.758956h157.540174a78.981565 78.981565 0 0 1 78.758957 78.758956v157.540174z m-78.758957 236.29913h-157.540174a158.052174 158.052174 0 0 0-157.540174 157.517913v157.540174A158.052174 158.052174 0 0 0 708.897391 1024h157.540174A158.052174 158.052174 0 0 0 1024 866.415304v-157.540174a158.052174 158.052174 0 0 0-157.562435-157.517913z m78.758957 315.058087a78.981565 78.981565 0 0 1-78.758957 78.758957h-157.540174a78.981565 78.981565 0 0 1-78.758956-78.758957v-157.540174a78.981565 78.981565 0 0 1 78.758956-78.758956h157.540174a78.981565 78.981565 0 0 1 78.758957 78.758956v157.540174zM315.080348 0H157.540174A158.052174 158.052174 0 0 0 0 157.517913v157.540174a158.052174 158.052174 0 0 0 157.540174 157.517913h157.540174a158.052174 158.052174 0 0 0 157.517913-157.517913V157.517913A158.052174 158.052174 0 0 0 315.080348 0z m78.758956 315.058087a78.981565 78.981565 0 0 1-78.758956 78.758956H157.540174a78.981565 78.981565 0 0 1-78.758957-78.758956V157.517913a78.981565 78.981565 0 0 1 78.758957-78.758956h157.540174a78.981565 78.981565 0 0 1 78.758956 78.758956v157.540174z" p-id="1226" fill="#8a8a8a"></path></svg>