<?xml version="1.0" standalone="no"?><!DOCTYPE svg PUBLIC "-//W3C//DTD SVG 1.1//EN" "http://www.w3.org/Graphics/SVG/1.1/DTD/svg11.dtd"><svg t="1603912261861" class="icon" viewBox="0 0 1024 1024" version="1.1" xmlns="http://www.w3.org/2000/svg" p-id="4596" xmlns:xlink="http://www.w3.org/1999/xlink" width="16" height="16"><defs><style type="text/css"></style></defs><path d="M68.266667 136.533333v204.8a68.266667 68.266667 0 0 0 68.266666 68.266667h204.8a68.266667 68.266667 0 0 0 68.266667-68.266667V136.533333a68.266667 68.266667 0 0 0-68.266667-68.266666H136.533333a68.266667 68.266667 0 0 0-68.266666 68.266666z m68.266666-136.533333h204.8a136.533333 136.533333 0 0 1 136.533334 136.533333v204.8a136.533333 136.533333 0 0 1-136.533334 136.533334H136.533333a136.533333 136.533333 0 0 1-136.533333-136.533334V136.533333a136.533333 136.533333 0 0 1 136.533333-136.533333z m0 546.133333h204.8a136.533333 136.533333 0 0 1 136.533334 136.533334v204.8a136.533333 136.533333 0 0 1-136.533334 136.533333H136.533333a136.533333 136.533333 0 0 1-136.533333-136.533333v-204.8a136.533333 136.533333 0 0 1 136.533333-136.533334z m-68.266666 136.533334v204.8a68.266667 68.266667 0 0 0 68.266666 68.266666h204.8a68.266667 68.266667 0 0 0 68.266667-68.266666v-204.8a68.266667 68.266667 0 0 0-68.266667-68.266667H136.533333a68.266667 68.266667 0 0 0-68.266666 68.266667z m614.4-682.666667h204.8a136.533333 136.533333 0 0 1 136.533333 136.533333v204.8a136.533333 136.533333 0 0 1-136.533333 136.533334h-204.8a136.533333 136.533333 0 0 1-136.533334-136.533334V136.533333a136.533333 136.533333 0 0 1 136.533334-136.533333zM614.4 136.533333v204.8a68.266667 68.266667 0 0 0 68.266667 68.266667h204.8a68.266667 68.266667 0 0 0 68.266666-68.266667V136.533333a68.266667 68.266667 0 0 0-68.266666-68.266666h-204.8a68.266667 68.266667 0 0 0-68.266667 68.266666z m68.266667 409.6h204.8a136.533333 136.533333 0 0 1 136.533333 136.533334v204.8a136.533333 136.533333 0 0 1-136.533333 136.533333h-204.8a136.533333 136.533333 0 0 1-136.533334-136.533333v-204.8a136.533333 136.533333 0 0 1 136.533334-136.533334z m-68.266667 136.533334v204.8a68.266667 68.266667 0 0 0 68.266667 68.266666h204.8a68.266667 68.266667 0 0 0 68.266666-68.266666v-204.8a68.266667 68.266667 0 0 0-68.266666-68.266667h-204.8a68.266667 68.266667 0 0 0-68.266667 68.266667z" fill="#ffffff" p-id="4597"></path></svg>