<?xml version="1.0" standalone="no"?><!DOCTYPE svg PUBLIC "-//W3C//DTD SVG 1.1//EN" "http://www.w3.org/Graphics/SVG/1.1/DTD/svg11.dtd"><svg t="1604590888105" class="icon" viewBox="0 0 1024 1024" version="1.1" xmlns="http://www.w3.org/2000/svg" p-id="7480" xmlns:xlink="http://www.w3.org/1999/xlink" width="16" height="16"><defs><style type="text/css"></style></defs><path d="M915.437 962h-310.31a46.563 46.563 0 0 1-46.564-46.563v-310.31a46.563 46.563 0 0 1 46.563-46.564h310.358a46.563 46.563 0 0 1 46.563 46.563v310.31A46.563 46.563 0 0 1 915.437 962z m0-496.563h-310.31a46.563 46.563 0 0 1-46.564-46.516V108.563A46.563 46.563 0 0 1 605.126 62h310.358a46.563 46.563 0 0 1 46.563 46.563v310.358a46.563 46.563 0 0 1-46.61 46.516zM418.92 962H108.563A46.563 46.563 0 0 1 62 915.437v-310.31a46.563 46.563 0 0 1 46.563-46.564h310.358a46.563 46.563 0 0 1 46.563 46.563v310.31A46.563 46.563 0 0 1 418.921 962z m0-496.563H108.563A46.563 46.563 0 0 1 62 418.92V108.563A46.563 46.563 0 0 1 108.563 62h310.358a46.563 46.563 0 0 1 46.563 46.563v310.358a46.563 46.563 0 0 1-46.563 46.516z" p-id="7481" fill="#ffffff"></path></svg>