<?xml version="1.0" standalone="no"?><!DOCTYPE svg PUBLIC "-//W3C//DTD SVG 1.1//EN" "http://www.w3.org/Graphics/SVG/1.1/DTD/svg11.dtd"><svg t="1604357596256" class="icon" viewBox="0 0 1024 1024" version="1.1" xmlns="http://www.w3.org/2000/svg" p-id="3071" xmlns:xlink="http://www.w3.org/1999/xlink" width="16" height="16"><defs><style type="text/css"></style></defs><path d="M204.8 896c-32 0-64-6.4-83.2-38.4-19.2-25.6-12.8-64 12.8-96l19.2-19.2c6.4-6.4 12.8-12.8 12.8-19.2C64 659.2 0 563.2 0 460.8c0-198.4 224-352 512-352s512 153.6 512 352-224 352-512 352h-32c-108.8 57.6-198.4 70.4-204.8 70.4-25.6 6.4-44.8 12.8-70.4 12.8zM512 204.8c-224 0-416 115.2-416 256 0 76.8 64 153.6 166.4 204.8 0 0 25.6 6.4 38.4 32 6.4 19.2-19.2 44.8-19.2 44.8-12.8 25.6-32 38.4-44.8 57.6 6.4 0 12.8 0 19.2-6.4 6.4 0 89.6-12.8 185.6-64 0 0 6.4-6.4 12.8-6.4h51.2c224 0 416-115.2 416-256S736 204.8 512 204.8z" p-id="3072" fill="#8a8a8a"></path></svg>