<?xml version="1.0" standalone="no"?><!DOCTYPE svg PUBLIC "-//W3C//DTD SVG 1.1//EN" "http://www.w3.org/Graphics/SVG/1.1/DTD/svg11.dtd"><svg t="1603913079175" class="icon" viewBox="0 0 1024 1024" version="1.1" xmlns="http://www.w3.org/2000/svg" p-id="7899" xmlns:xlink="http://www.w3.org/1999/xlink" width="16" height="16"><defs><style type="text/css"></style></defs><path d="M492.211676 0.034999h30.884945c2.611911 0.634978 5.223821 1.305955 7.835732 1.869936a749.742374 749.742374 0 0 1 82.172191 17.331408 199.039197 199.039197 0 0 1 133.915423 125.763701 250.608434 250.608434 0 0 1 5.612808 120.326887c-2.258923 17.083416-4.905832 34.096835-7.376748 51.145252a21.531264 21.531264 0 0 1 22.83722 22.449233 319.296087 319.296087 0 0 1-10.589638 109.42026 31.02594 31.02594 0 0 1-36.319759 28.944011 31.166935 31.166935 0 0 0-1.376953 3.529879c-0.458984 1.975932-0.776973 4.022862-1.16496 5.999795a162.96643 162.96643 0 0 1-74.582451 113.974104 48.074357 48.074357 0 0 0-26.402097 44.827468 22.23724 22.23724 0 0 0 10.589638 22.766222 627.508552 627.508552 0 0 0 112.738146 56.47507c41.473582 16.872423 82.947165 33.848843 124.103759 51.533238a166.990292 166.990292 0 0 1 63.040845 48.216352 278.846469 278.846469 0 0 1 60.004949 154.000736 40.768607 40.768607 0 0 1-25.661123 41.614578c-2.399918 1.093963-4.659841 2.435917-7.059759 3.529879H68.119172c-2.011931-1.093963-3.953865-2.364919-6.035794-3.247889a41.685575 41.685575 0 0 1-26.543093-44.085493A292.964987 292.964987 0 0 1 77.894838 851.645891a214.570666 214.570666 0 0 1 107.126338-85.666072c42.356552-16.730428 85.031094-32.366894 127.351647-49.027324a389.325693 389.325693 0 0 0 90.501907-47.827365 15.742462 15.742462 0 0 0 7.799733-18.001385 132.893458 132.893458 0 0 1-2.752906-27.426063 12.88356 12.88356 0 0 0-9.812664-13.200549A169.425209 169.425209 0 0 1 291.337542 490.698228l-3.352885-13.765529a29.578989 29.578989 0 0 1-34.096835-22.767222 225.053308 225.053308 0 0 1-9.63567-45.885432 535.384701 535.384701 0 0 1-3.176892-68.15867 21.743257 21.743257 0 0 1 22.589228-24.179174c-0.210993-2.9299-0.210993-5.999795-0.634978-8.964693a609.331173 609.331173 0 0 1-7.799734-138.470268 72.076536 72.076536 0 0 1 28.69602-57.92202 15.989453 15.989453 0 0 0 7.059758-16.907422c-1.799938-11.083621-3.953865-22.096245-5.789802-33.178866a18.884355 18.884355 0 0 1 15.460472-25.519128 199.393185 199.393185 0 0 1 43.521512-6.212787 182.026778 182.026778 0 0 0 77.22936-13.130551 51.428242 51.428242 0 0 1 11.789597-3.52988c19.695327-4.09486 39.426652-8.082724 59.12198-12.106586z m0 0" p-id="7900" fill="#ffffff"></path></svg>