<?xml version="1.0" standalone="no"?><!DOCTYPE svg PUBLIC "-//W3C//DTD SVG 1.1//EN" "http://www.w3.org/Graphics/SVG/1.1/DTD/svg11.dtd"><svg t="1604538906521" class="icon" viewBox="0 0 1141 1024" version="1.1" xmlns="http://www.w3.org/2000/svg" p-id="11138" xmlns:xlink="http://www.w3.org/1999/xlink" width="17.828125" height="16"><defs><style type="text/css"></style></defs><path d="M268.296954 276.147361a38.727984 38.727984 0 0 1 54.785656 0l33.152403 33.163554a38.727984 38.727984 0 0 1 0 54.774505 38.727984 38.727984 0 0 1-54.774505 0l-33.163554-33.174706a38.739135 38.739135 0 0 1 0-54.763353z" p-id="11139"></path><path d="M134.059273 542.660118m38.727984 0l46.846029 0q38.727984 0 38.727984 38.727984l0 0q0 38.727984-38.727984 38.727983l-46.846029 0q-38.727984 0-38.727984-38.727983l0 0q0-38.727984 38.727984-38.727984Z" p-id="11140"></path><path d="M534.832014 144.496749m38.705681 0l0 0q38.705681 0 38.705682 38.705682l0 46.879482q0 38.705681-38.705682 38.705681l0 0q-38.705681 0-38.705681-38.705681l0-46.879482q0-38.705681 38.705681-38.705682Z" p-id="11141"></path><path d="M879.302541 276.147361a38.727984 38.727984 0 0 1 0 54.774505l-33.197008 33.185856a38.716832 38.716832 0 0 1-54.752202 0 38.716832 38.716832 0 0 1 0-54.763354l33.208159-33.185856a38.705681 38.705681 0 0 1 54.741051-0.011151z" p-id="11142"></path><path d="M883.51768 542.660118m38.727983 0l46.846029 0q38.727984 0 38.727984 38.727984l0 0q0 38.727984-38.727984 38.727983l-46.846029 0q-38.727984 0-38.727983-38.727983l0 0q0-38.727984 38.727983-38.727984Z" p-id="11143"></path><path d="M736.813001 419.830075a36.152065 36.152065 0 0 1 0 51.128075l-91.651396 91.606791v0.18957a72.68327 72.68327 0 0 1-70.107352 91.439524c-36.954949 0.312233-69.728212-27.409555-73.218525-67.353015a68.434677 68.434677 0 0 1 3.84715-29.271799c13.738231-37.679774 52.577726-55.945377 88.172233-46.065448h0.178419l91.617942-91.617942a36.140914 36.140914 0 0 1 51.161529-0.055756z" p-id="11144"></path><path d="M890.018807 1023.977698H251.860142a80.522536 80.522536 0 0 1-52.3324-19.469928A570.538022 570.538022 0 0 1 0.000011 570.950615C0.000011 416.941925 60.394701 272.578989 170.055222 164.423875S425.037679-2.297139 579.046369 0.078058C887.186412 4.348953 1139.648706 258.584282 1141.878938 566.78008a570.203487 570.203487 0 0 1-199.538882 437.761143 80.522536 80.522536 0 0 1-52.321249 19.436475zM570.939475 68.523887c-132.944146 0-257.948665 51.217284-352.722386 144.686319C121.659182 308.374217 68.512747 435.419399 68.512747 570.950615a502.125647 502.125647 0 0 0 175.608489 381.57044 11.99865 11.99865 0 0 0 7.738906 2.966209h638.158665a11.90944 11.90944 0 0 0 7.727755-2.966209 501.802263 501.802263 0 0 0 175.608489-385.239172c-1.929151-271.218548-224.138344-494.944299-495.256531-498.70224q-3.612976-0.044605-7.159045-0.055756z" p-id="11145"></path></svg>