<?xml version="1.0" standalone="no"?><!DOCTYPE svg PUBLIC "-//W3C//DTD SVG 1.1//EN" "http://www.w3.org/Graphics/SVG/1.1/DTD/svg11.dtd"><svg t="1602709485264" class="icon" viewBox="0 0 1026 1024" version="1.1" xmlns="http://www.w3.org/2000/svg" p-id="2756" xmlns:xlink="http://www.w3.org/1999/xlink" width="16.03125" height="16"><defs><style type="text/css"></style></defs><path d="M662.144 220a32 32 0 0 0 32 32h280.96a32 32 0 1 0 0-64h-280.96a32 32 0 0 0-32 32zM975.136 345.408h-116.288a32 32 0 1 0 0 64h116.288a32 32 0 1 0 0-64zM1007.136 533.44a32 32 0 0 0-32-32H659.2l39.584-39.2a32 32 0 0 0-45.056-45.472l-92.192 91.328a32.096 32.096 0 0 0-9.472 22.72v5.184c0 8.544 3.392 16.736 9.472 22.72l92.192 91.328a31.904 31.904 0 0 0 45.248-0.192 32 32 0 0 0-0.192-45.248l-39.616-39.264h315.936a31.84 31.84 0 0 0 32.032-31.904z" p-id="2757" fill="#8a8a8a"></path><path d="M977.984 830.24h-98.784c-19.872-55.744-72.672-96-135.168-96s-115.264 40.256-135.168 96h-152.576c-19.872-55.744-72.672-96-135.168-96-62.56 0-115.392 40.352-135.232 96.192-0.672-0.032-1.28-0.192-1.984-0.192H97.984v-179.232h278.72a48 48 0 0 0 48-48V161.216a16 16 0 0 1 15.936-15.936h253.504a48 48 0 1 0 0-96H440.64a112.064 112.064 0 0 0-111.936 111.936v98.784H271.168c-38.592 0-73.92 19.488-94.528 52.128L9.376 577.44c-0.608 0.96-0.96 1.984-1.472 2.944-0.864 1.6-1.76 3.2-2.432 4.896-0.576 1.472-0.96 2.976-1.376 4.48-0.448 1.504-0.928 2.944-1.216 4.512-0.32 1.824-0.416 3.616-0.544 5.44-0.064 1.12-0.32 2.176-0.32 3.296v275.232a48 48 0 0 0 48 48H184c0.672 0 1.312-0.16 1.984-0.192 19.808 55.84 72.64 96.192 135.232 96.192 62.496 0 115.264-40.256 135.168-96h152.576c19.872 55.744 72.672 96 135.168 96s115.264-40.256 135.168-96h98.784a48 48 0 1 0-0.096-96zM257.856 363.328a15.616 15.616 0 0 1 13.312-7.328h57.568v199.04H136.992l120.864-191.712z m63.328 562.912c-26.464 0-48-21.536-48-48s21.536-48 48-48 48 21.536 48 48-21.536 48-48 48z m422.88 0c-26.464 0-48-21.536-48-48s21.536-48 48-48 48 21.536 48 48-21.536 48-48 48z" p-id="2758" fill="#8a8a8a"></path></svg>