<?xml version="1.0" standalone="no"?><!DOCTYPE svg PUBLIC "-//W3C//DTD SVG 1.1//EN" "http://www.w3.org/Graphics/SVG/1.1/DTD/svg11.dtd"><svg t="1604538588879" class="icon" viewBox="0 0 1160 1024" version="1.1" xmlns="http://www.w3.org/2000/svg" p-id="7380" xmlns:xlink="http://www.w3.org/1999/xlink" width="18.125" height="16"><defs><style type="text/css"></style></defs><path d="M585.874773 868.5568c115.3024-99.191467 196.1984-171.144533 242.688-215.790933 72.567467-69.700267 126.020267-130.4576 160.426667-182.272 38.0928-58.094933 57.207467-113.0496 57.207467-164.932267 0-36.590933-8.874667-69.632-26.555734-99.1232a185.480533 185.480533 0 0 0-72.4992-69.085867c-30.72-16.520533-65.536-24.7808-104.6528-24.7808-45.533867 0-87.6544 12.288-126.225066 36.864-38.570667 24.576-65.809067 56.046933-81.578667 94.481067H525.868373C510.98624 205.482667 484.020907 174.08 444.972373 149.504a231.560533 231.560533 0 0 0-125.5424-36.864 221.184 221.184 0 0 0-105.335466 24.7808c-31.1296 16.5888-55.5008 39.594667-73.181867 69.085867a189.2352 189.2352 0 0 0-26.555733 99.1232c0 51.882667 19.114667 106.837333 57.207466 164.864 34.4064 51.882667 87.8592 112.64 160.426667 182.272 46.4896 44.714667 127.3856 116.667733 242.688 215.8592l5.597867 5.3248 5.597866-5.3248zM842.55744 0c58.5728 0 112.2304 13.380267 161.109333 40.209067a298.257067 298.257067 0 0 1 115.029334 110.592c27.921067 46.8992 41.847467 98.5088 41.847466 154.760533 0 67.037867-20.48 134.9632-61.371733 203.776-36.2496 59.869867-93.934933 128.2048-172.987733 205.073067-47.377067 46.421333-134.3488 125.064533-260.778667 235.861333L580.276907 1024l-83.694934-70.997333c-124.586667-109.021867-212.036267-188.142933-262.212266-237.294934C155.316907 638.976 98.10944 570.504533 62.747307 510.634667 20.89984 441.890133 0.01024 373.486933 0.01024 305.5616A293.546667 293.546667 0 0 1 42.540373 150.869333 304.810667 304.810667 0 0 1 157.70624 40.209067C205.970773 13.380267 259.90144 0 319.429973 0c49.288533 0 97.211733 10.717867 143.701334 32.1536A349.525333 349.525333 0 0 1 580.276907 117.9648 349.525333 349.525333 0 0 1 697.422507 32.085333 342.562133 342.562133 0 0 1 842.489173 0z" p-id="7381"></path></svg>