<?xml version="1.0" standalone="no"?><!DOCTYPE svg PUBLIC "-//W3C//DTD SVG 1.1//EN" "http://www.w3.org/Graphics/SVG/1.1/DTD/svg11.dtd"><svg t="1604590995214" class="icon" viewBox="0 0 1024 1024" version="1.1" xmlns="http://www.w3.org/2000/svg" p-id="2061" xmlns:xlink="http://www.w3.org/1999/xlink" width="16" height="16"><defs><style type="text/css"></style></defs><path d="M512 180c88.6 0 172 34.6 234.8 97.2C809.4 340 844 423.4 844 512s-34.6 172-97.2 234.8C684 809.4 600.6 844 512 844s-172-34.6-234.8-97.2C214.6 684 180 600.6 180 512s34.6-172 97.2-234.8C340 214.6 423.4 180 512 180m0-84C282.2 96 96 282.2 96 512s186.2 416 416 416 416-186.2 416-416S741.8 96 512 96z" p-id="2062" fill="#8a8a8a"></path><path d="M554 720h-84V470h84v250z m0-332h-84v-84h84v84z" p-id="2063" fill="#8a8a8a"></path></svg>