<?xml version="1.0" standalone="no"?><!DOCTYPE svg PUBLIC "-//W3C//DTD SVG 1.1//EN" "http://www.w3.org/Graphics/SVG/1.1/DTD/svg11.dtd"><svg t="1604538750673" class="icon" viewBox="0 0 1024 1024" version="1.1" xmlns="http://www.w3.org/2000/svg" p-id="10371" xmlns:xlink="http://www.w3.org/1999/xlink" width="16" height="16"><defs><style type="text/css"></style></defs><path d="M512 170.666667h-0.810667A341.333333 341.333333 0 0 0 170.666667 512a341.333333 341.333333 0 0 0 340.48 341.333333H512c188.586667 0 341.333333-152.746667 341.333333-341.333333s-152.746667-341.333333-341.333333-341.333333z m13.653333 204.288a506.026667 506.026667 0 0 0 105.301334-13.909334c10.197333 40.192 16.597333 86.613333 17.578666 137.514667h-122.88V374.954667z m0-27.392V200.192c36.693333 10.197333 74.154667 59.264 97.792 134.570667-31.530667 7.552-64.170667 11.818667-97.834666 12.8z m-27.306666-147.669334V347.733333a474.496 474.496 0 0 1-98.56-13.141333c23.893333-75.818667 61.525333-125.184 98.56-134.698667z m0 175.061334v123.434666h-123.733334c1.024-50.901333 7.424-97.322667 17.578667-137.514666 34.133333 8.192 69.76 13.098667 106.197333 14.08z m-151.253334 123.434666H198.4a311.978667 311.978667 0 0 1 71.04-185.429333c30.378667 16.725333 62.72 30.506667 96.512 40.661333a643.84 643.84 0 0 0-18.858667 144.768z m0 27.221334c0.981333 52.053333 7.552 101.248 18.688 144.768-33.450667 10.24-65.792 23.850667-96.469333 40.661333a313.045333 313.045333 0 0 1-71.082667-185.429333h148.864z m27.562667 0h123.733333v123.264c-36.437333 0.981333-72.064 5.888-106.197333 14.250666a612.48 612.48 0 0 1-17.536-137.514666z m123.733333 150.656v148.053333c-37.12-9.728-74.666667-58.965333-98.645333-134.741333a463.786667 463.786667 0 0 1 98.645333-13.312z m27.221334 147.541333v-147.712c33.664 0.981333 66.304 5.418667 97.962666 12.970667-23.765333 75.52-61.013333 124.586667-97.962666 134.741333z m0-174.933333v-123.264H648.533333a612.224 612.224 0 0 1-17.578666 137.386666 506.112 506.112 0 0 0-105.344-14.122666z m150.314666-123.264h149.674667a312.405333 312.405333 0 0 1-71.04 185.429333c-30.72-16.896-63.189333-30.677333-97.322667-41.002667 11.136-43.52 17.706667-92.416 18.688-144.426666z m0-27.221334a644.138667 644.138667 0 0 0-18.517333-144.597333 508.586667 508.586667 0 0 0 97.152-40.832 312.064 312.064 0 0 1 71.04 185.6h-149.674667v-0.170667z m59.904-206.464c-27.221333 14.464-55.808 26.453333-85.802666 35.456-15.914667-51.370667-38.4-93.226667-64.853334-120.746666a315.605333 315.605333 0 0 1 150.656 85.333333zM437.845333 206.933333c-26.453333 27.392-48.768 69.248-64.512 120.32a466.218667 466.218667 0 0 1-84.992-35.328 312.021333 312.021333 0 0 1 149.504-84.992zM288.170667 731.904c26.88-14.464 55.466667-26.282667 84.992-35.285333 15.914667 51.2 38.229333 92.885333 64.682666 120.448a312.234667 312.234667 0 0 1-149.674666-85.162667z m297.002666 85.504c26.581333-27.562667 48.938667-69.418667 64.981334-120.96 30.037333 9.045333 58.624 20.992 85.845333 35.413333a315.093333 315.093333 0 0 1-150.826667 85.546667z" fill="#000000" p-id="10372"></path></svg>