<?xml version="1.0" standalone="no"?><!DOCTYPE svg PUBLIC "-//W3C//DTD SVG 1.1//EN" "http://www.w3.org/Graphics/SVG/1.1/DTD/svg11.dtd"><svg t="1602711267220" class="icon" viewBox="0 0 1618 1024" version="1.1" xmlns="http://www.w3.org/2000/svg" p-id="6323" xmlns:xlink="http://www.w3.org/1999/xlink" width="25.28125" height="16"><defs><style type="text/css"></style></defs><path d="M0 1024h1618.474667V0H0v1024z" fill="#1B3771" p-id="6324"></path><path d="M810.538667 839.125333a441.898667 441.898667 0 1 0-145.792-328.021333 440.661333 440.661333 0 0 0 145.792 328.021333z" fill="#E9B040" p-id="6325"></path><path d="M1490.901333 757.546667a13.909333 13.909333 0 0 1 14.762667-13.866667 13.696 13.696 0 0 1 13.866667 13.866667 14.421333 14.421333 0 0 1-13.866667 14.762666 14.592 14.592 0 0 1-14.762667-14.506666z m14.762667 11.306666a11.392 11.392 0 0 0 10.410667-11.306666 10.538667 10.538667 0 0 0-10.410667-10.410667 10.794667 10.794667 0 0 0-11.306667 10.410667 11.477333 11.477333 0 0 0 11.306667 11.306666z m-2.602667-4.266666h-2.645333v-13.013334h5.248a5.248 5.248 0 0 1 3.456 0.853334c0.853333 0.896 1.749333 1.749333 1.749333 2.602666 0 1.749333-0.896 3.498667-2.602666 3.498667l2.602666 6.058667h-3.498666l-1.706667-5.205334h-2.602667v5.205334z m0-7.808h3.456c0.853333 0 0.853333-0.896 0.853334-1.749334a0.853333 0.853333 0 0 0-0.853334-0.853333h-3.456v2.602667z" fill="#E9B040" p-id="6326"></path><path d="M953.728 464.256a434.218667 434.218667 0 0 0-7.808-46.933333h-270.762667a479.616 479.616 0 0 1 12.8-46.933334h244.736q-7.978667-23.893333-18.218666-46.933333h-208.298667q12.032-23.978667 26.026667-46.933333h156.202666a291.797333 291.797333 0 0 0-33.834666-46.933334h-88.490667a452.266667 452.266667 0 0 1 44.245333-46.933333 442.581333 442.581333 0 1 0 0 656.085333 570.88 570.88 0 0 0 45.098667-46.933333h-89.6a461.226667 461.226667 0 0 1-33.834667-46.933333h156.202667a401.749333 401.749333 0 0 0 26.069333-46.933334h-208.298666a374.144 374.144 0 0 1-18.218667-46.933333h244.736a478.805333 478.805333 0 0 0 12.8-46.933333 446.848 446.848 0 0 0 7.808-46.933334 425.002667 425.002667 0 0 0 0-93.866666z" fill="#CC2131" p-id="6327"></path><path d="M1490.901333 613.504a13.909333 13.909333 0 0 1 14.762667-13.866667 13.696 13.696 0 0 1 13.866667 13.866667 14.464 14.464 0 0 1-13.866667 14.762667 14.592 14.592 0 0 1-14.762667-14.506667z m14.762667 11.306667a11.434667 11.434667 0 0 0 10.410667-11.306667 10.538667 10.538667 0 0 0-10.410667-10.410667 10.794667 10.794667 0 0 0-11.306667 10.410667 11.52 11.52 0 0 0 11.306667 11.306667z m-2.602667-4.266667h-2.645333v-13.013333h5.248a5.248 5.248 0 0 1 3.456 0.853333c0.853333 0.896 1.749333 1.749333 1.749333 2.602667 0 1.749333-0.896 3.456-2.602666 3.456l2.602666 6.101333h-3.498666l-1.706667-5.205333h-2.602667v5.205333z m0-7.808h3.456c0.853333 0 0.853333-0.896 0.853334-1.749333a0.853333 0.853333 0 0 0-0.853334-0.853334h-3.456v2.602667z" fill="#FFFFFF" p-id="6328"></path><path d="M660.224 638.677333a121.898667 121.898667 0 0 1-36.437333 6.101334c-22.570667 0-36.437333-13.909333-36.437334-39.936a120.106667 120.106667 0 0 1 1.706667-16.469334l2.602667-17.365333 2.602666-14.762667 20.864-124.970666h45.952l-5.162666 27.776h28.629333l-6.954667 45.994666h-28.629333l-13.013333 74.624c0 2.602667-0.853333 5.205333-0.853334 6.954667 0 9.514667 5.162667 13.866667 16.469334 13.866667a74.112 74.112 0 0 0 14.762666-1.749334l-6.101333 39.936z m148.394667-1.749333a164.821333 164.821333 0 0 1-49.450667 7.850667 73.685333 73.685333 0 0 1-81.578667-81.621334c0-62.464 35.584-109.312 84.181334-109.312a61.312 61.312 0 0 1 64.213333 66.816 198.186667 198.186667 0 0 1-6.058667 45.141334h-95.488v5.205333c0 21.674667 13.909333 32.085333 41.685334 32.085333a117.632 117.632 0 0 0 50.304-11.264l-7.808 45.098667z m-28.629334-108.458667v-8.533333a21.333333 21.333333 0 0 0-22.570666-23.424c-15.616 0-26.026667 11.264-30.378667 32.085333zM293.162667 641.28H245.418667l27.776-172.672-61.610667 172.672h-32.981333l-3.456-171.818667-29.525334 171.818667H99.626667l37.333333-224.768h68.565333l2.602667 138.837333 45.994667-138.837333h76.373333z m115.413333-81.578667c-5.205333 0-6.058667-0.853333-9.557333-0.853333-26.88 0-40.789333 10.410667-40.789334 27.776a17.066667 17.066667 0 0 0 17.365334 19.072c23.424 0 32.128-19.072 32.981333-45.994667z m38.4 81.578667H405.333333l0.853334-19.072a54.357333 54.357333 0 0 1-50.346667 22.570667 45.909333 45.909333 0 0 1-42.666667-50.346667 93.866667 93.866667 0 0 1 3.456-23.424c7.808-28.672 36.437333-46.037333 79.829334-46.933333a184.405333 184.405333 0 0 1 20.821333 0.853333 35.925333 35.925333 0 0 0 1.749333-12.117333c0-12.16-9.557333-15.616-32.128-15.616a185.173333 185.173333 0 0 0-39.893333 5.205333l-6.058667 2.602667h-3.498666l6.954666-40.789334a177.237333 177.237333 0 0 1 55.466667-9.557333c41.642667 0 63.317333 18.218667 63.317333 53.802667a150.442667 150.442667 0 0 1-2.602666 35.584l-9.514667 65.109333-1.749333 11.264-1.749334 9.514667v6.101333l-0.853333 5.205333z m592.725333-180.48a91.605333 91.605333 0 0 1 42.666667 12.117333l7.808-49.450666c-4.266667-1.749333-5.205333-1.749333-11.264-4.266667l-19.968-4.266667a77.696 77.696 0 0 0-21.674667-2.602666 86.869333 86.869333 0 0 0-52.096 9.514666 116.650667 116.650667 0 0 0-28.629333 23.466667l-5.205333-1.749333-49.450667 34.688 2.602667-19.072h-51.2l-28.629334 182.229333h47.701334l17.365333-98.133333a167.893333 167.893333 0 0 1 10.410667-18.218667 26.88 26.88 0 0 1 26.026666-11.306667h3.498667a410.666667 410.666667 0 0 0-1.749333 34.730667 85.888 85.888 0 0 0 85.930666 97.194667 135.296 135.296 0 0 0 41.642667-6.912l8.533333-51.2a90.368 90.368 0 0 1-40.789333 11.306666c-27.776 0-44.245333-19.968-44.245333-54.698666 0-48.597333 24.277333-83.285333 60.757333-83.285334z m405.333334-44.288l-10.453334 64.213333a48.64 48.64 0 0 0-43.349333-25.173333 72.149333 72.149333 0 0 0-63.36 40.789333l-30.378667-18.218666 2.602667-19.072h-51.2l-29.525333 182.229333h48.597333l15.616-98.133333s12.16-13.909333 15.616-18.218667a26.837333 26.837333 0 0 1 20.864-11.306667 171.008 171.008 0 0 0-8.533333 53.845334c0 45.952 24.32 76.330667 59.008 76.330666a55.466667 55.466667 0 0 0 44.288-20.821333l-2.602667 18.218667h45.866667l36.437333-224.768z m-58.154667 181.376c-16.469333 0-24.277333-11.264-24.277333-35.584 0-35.584 14.72-61.610667 37.290666-61.610667 16.512 0 25.173333 13.013333 25.173334 36.48 0 35.541333-15.616 60.714667-38.4 60.714667z m-221.269333-38.186667c-5.205333 0-6.058667-0.853333-9.557334-0.853333-26.922667 0-40.789333 10.410667-40.789333 27.776a17.066667 17.066667 0 0 0 17.365333 19.072c23.424 0 32.085333-19.072 32.981334-45.994667z m38.144 81.578667h-41.6l0.853333-19.072a54.357333 54.357333 0 0 1-50.346667 22.570667 46.634667 46.634667 0 0 1-44.245333-50.346667c0.853333-43.392 32.981333-70.314667 85.034667-70.314667a184.746667 184.746667 0 0 1 20.821333 0.853334 35.925333 35.925333 0 0 0 1.749333-12.117334c0-12.16-9.557333-15.616-32.128-15.616a178.176 178.176 0 0 0-39.893333 5.205334l-6.954667 2.602666h-2.602666l6.954666-40.789333a177.024 177.024 0 0 1 55.466667-9.557333c41.642667 0 63.36 18.218667 63.36 53.802666a152.874667 152.874667 0 0 1-2.602667 35.584l-9.557333 65.109334-1.706667 11.264-1.749333 9.514666-0.896 6.101334z m-657.066667-143.189333a307.2 307.2 0 0 1 36.437333 2.602666l6.954667-42.666666a411.050667 411.050667 0 0 0-43.392-3.498667c-52.949333 0-71.168 28.629333-71.168 62.506667a51.456 51.456 0 0 0 35.584 49.450666c19.968 9.557333 23.424 11.306667 23.424 19.072 0 11.306667-10.410667 18.261333-29.482667 18.261334a154.581333 154.581333 0 0 1-42.666666-6.954667l-5.205334 41.642667h0.896l8.533334 1.749333a40.917333 40.917333 0 0 0 12.16 1.706667 183.722667 183.722667 0 0 0 27.733333 1.749333c52.949333 0 75.52-19.925333 75.52-60.757333a50.730667 50.730667 0 0 0-36.437333-50.304c-19.968-9.557333-22.570667-10.410667-22.570667-19.114667s8.533333-15.616 23.424-15.616z" fill="#1B3771" p-id="6329"></path><path d="M1102.976 409.6l-7.808 48.597333a91.093333 91.093333 0 0 0-42.666667-12.16c-36.437333 0-61.568 34.730667-61.568 84.181334 0 33.834667 17.365333 54.656 45.098667 54.656a90.794667 90.794667 0 0 0 40.789333-11.264l-8.533333 51.2a162.773333 162.773333 0 0 1-42.666667 6.058666c-51.2 0-83.285333-36.437333-83.285333-96.341333 0-80.682667 44.245333-136.234667 107.562667-136.234667a147.882667 147.882667 0 0 1 21.717333 1.749334l19.968 5.205333c6.058667 2.602667 6.912 2.602667 11.264 4.266667z m-153.6 33.834667a10.624 10.624 0 0 0-5.205333-0.896c-15.616 0-24.277333 7.850667-39.04 29.525333l4.266666-27.776h-44.245333l-28.672 183.125333h47.744c17.365333-111.957333 21.674667-131.072 45.141333-131.072h3.456a165.418667 165.418667 0 0 1 18.218667-52.906666z m-276.821333 181.376a105.301333 105.301333 0 0 1-34.730667 6.058666 35.242667 35.242667 0 0 1-38.144-39.936 120.021333 120.021333 0 0 1 1.706667-16.469333l2.602666-18.218667 2.602667-13.909333 20.821333-124.928h47.744l-5.205333 26.88h24.405333l-6.954666 45.141333h-24.32l-12.8 75.477334c0 3.498667-0.853333 6.101333-0.853334 7.808 0 9.557333 5.205333 13.909333 16.512 13.909333a47.744 47.744 0 0 0 13.013334-1.749333l-6.101334 39.936z m-184.832-122.368a52.522667 52.522667 0 0 0 36.437333 50.304c19.968 9.557333 22.570667 12.16 22.570667 20.864 0 11.264-8.533333 16.469333-27.776 16.469333a130.432 130.432 0 0 1-42.666667-7.808l-6.912 42.666667h2.602667l8.533333 1.706666a40.32 40.32 0 0 0 12.16 1.749334c11.264 0.853333 20.821333 1.749333 26.88 1.749333 50.346667 0 73.770667-19.114667 73.770667-60.757333a50.176 50.176 0 0 0-33.834667-51.2c-19.968-8.533333-22.570667-11.306667-22.570667-19.114667q0-15.616 23.424-15.616a273.792 273.792 0 0 1 34.730667 3.498667l6.912-42.666667a362.112 362.112 0 0 0-42.666667-3.456c-53.802667 0-72.021333 27.776-72.021333 61.610667z m982.357333 124.970666h-46.122667l2.602667-18.218666a57.216 57.216 0 0 1-44.288 19.925333c-34.688 0-58.112-29.482667-58.112-75.477333 0-60.757333 35.584-111.957333 78.08-111.957334a53.76 53.76 0 0 1 45.994667 25.173334l10.410666-64h47.744l-36.437333 224.768z m-71.168-43.434666c22.570667 0 38.4-25.130667 38.4-61.568 0-22.570667-8.533333-35.584-25.173333-35.584-21.674667 0-37.333333 25.130667-37.333334 61.610666-0.213333 23.424 7.594667 35.541333 24.106667 35.541334z m-579.712 39.082666a159.189333 159.189333 0 0 1-49.450667 7.808 72.917333 72.917333 0 0 1-81.578666-81.578666c0-63.36 35.584-109.354667 84.181333-109.354667a61.312 61.312 0 0 1 64 66.816 248.533333 248.533333 0 0 1-5.205333 45.141333h-95.445334a12.501333 12.501333 0 0 0-0.896 5.205334c0 20.821333 13.909333 32.128 42.666667 32.128a116.992 116.992 0 0 0 49.493333-11.306667z m-26.88-108.501333v-9.514667a20.821333 20.821333 0 0 0-22.570667-23.424c-14.72 0-26.026667 12.117333-30.378666 32.938667zM305.493333 627.413333H257.749333l27.776-172.714666-61.610666 172.714666h-33.024l-3.456-171.861333-29.525334 171.861333H113.664l37.290667-224.768h68.565333l2.602667 138.837334 45.994666-138.837334h74.624l-37.290666 224.768z m118.869334-81.578666a55.722667 55.722667 0 0 0-11.264-0.896c-26.922667 0-40.789333 9.557333-40.789334 27.776a17.365333 17.365333 0 0 0 17.322667 19.114666c19.968 0 33.877333-19.114667 34.730667-45.994666z m34.730666 81.578666h-39.936l0.853334-19.114666a59.733333 59.733333 0 0 1-50.304 21.674666 44.202667 44.202667 0 0 1-43.392-49.450666c0-44.245333 30.378667-70.272 84.181333-70.272a156.245333 156.245333 0 0 1 19.072 0.853333 29.44 29.44 0 0 0 1.749333-11.264c0-12.16-7.808-16.512-30.378666-16.512a139.648 139.648 0 0 0-39.936 5.205333l-6.954667 1.749334-4.266667 0.853333 6.954667-40.789333a195.328 195.328 0 0 1 57.258667-9.557334c41.642667 0 63.36 18.218667 63.36 52.949334a194.944 194.944 0 0 1-4.266667 36.437333l-9.557333 65.109333-1.749334 11.264-0.853333 9.557334-0.853333 6.058666-0.853334 5.248z m722.005334-81.578666a55.893333 55.893333 0 0 0-11.306667-0.896c-26.88 0-40.789333 9.557333-40.789333 27.776a17.365333 17.365333 0 0 0 17.365333 19.114666c19.114667 0 33.877333-19.114667 34.730667-45.994666z m34.688 81.578666h-39.893334l0.853334-19.114666a60.928 60.928 0 0 1-50.346667 21.674666 44.8 44.8 0 0 1-44.245333-49.450666c0-44.245333 31.232-70.272 85.034666-70.272a155.904 155.904 0 0 1 19.072 0.853333 29.44 29.44 0 0 0 1.749334-11.264c0-12.16-7.808-16.512-30.378667-16.512a139.562667 139.562667 0 0 0-39.893333 5.205333l-6.954667 1.749334-4.266667 0.853333 6.954667-40.789333a195.328 195.328 0 0 1 57.258667-9.557334c41.642667 0 63.36 18.218667 63.36 52.949334a191.232 191.232 0 0 1-4.266667 36.437333l-9.514667 65.109333-1.749333 11.264-1.749333 9.557334-0.853334 6.058666v5.248z m128.469333-183.978666a6.4 6.4 0 0 0-4.266667-0.896c-15.616 0-25.173333 7.850667-39.936 29.525333l4.266667-27.776h-43.392l-29.525333 183.125333H1280c16.512-111.957333 21.717333-131.072 44.288-131.072h3.456a189.184 189.184 0 0 1 18.218667-52.906666z" fill="#FFFFFF" p-id="6330"></path></svg>