<?xml version="1.0" standalone="no"?><!DOCTYPE svg PUBLIC "-//W3C//DTD SVG 1.1//EN" "http://www.w3.org/Graphics/SVG/1.1/DTD/svg11.dtd"><svg t="1603314763081" class="icon" viewBox="0 0 1222 1024" version="1.1" xmlns="http://www.w3.org/2000/svg" p-id="3088" xmlns:xlink="http://www.w3.org/1999/xlink" width="19.09375" height="16"><defs><style type="text/css"></style></defs><path d="M0 650.4c4.6-8.4 10.4-9.8 19.4-5 20.8 11.2 41.2 22.8 62.4 33.4 81.4 40.8 166.4 71.2 254.8 92.6 41.8 10 83.8 18 126.4 23.6 63 8.4 126.4 12 190 10.4 34.8-0.8 69.6-3.6 104.2-7.6 112.8-13.4 221.8-41.6 326.6-85.6 5.8-2.4 11.8-4 18.2-2.4 13.4 3.6 18 18 8.2 27.8-5.6 5.6-12.6 10.2-19.2 14.8-61.4 42.2-128.4 72.8-199.2 95.8-49.2 15.8-99.2 27.6-150.2 35.2-35.2 5.2-70.8 8.8-106.4 9.6-1.6 0-3.4 0.4-5 0.6H588c-1.6-0.2-3.4-0.6-5-0.6-7.2-0.4-14.4-0.6-21.4-0.8-33.8-1.4-67.4-5.2-100.8-10.6-54.8-9-108.4-22.8-160.8-41.8-108.2-39.2-205.2-97.2-291.2-174-3.6-3.2-6-7.6-8.8-11.4v-4zM316 130c-2.8 0.4-5.8 0.8-8.6 1.2-28 3.4-53.2 13.8-76 30.2-4.8 3.4-9.2 7-14.2 10.8-0.4-1-0.8-2-0.8-2.8-0.8-5.4-1.6-11-2.6-16.4-1.4-9.2-6-13.2-15.2-13.2H175.6c-13.8 0-16.4 2.6-16.4 16.4v418.6c0 2 0 4 0.2 6 0.4 6 4 9.8 9.8 10 14 0.2 28.2 0.2 42.2 0 5.8 0 9.4-4 10-10 0.2-2 0.2-4 0.2-6V430c2.2 1.8 3.4 2.8 4.4 3.8 35.8 29.8 77 39.6 122 30.8 40.8-8 69.2-33 87.6-69.8 14-27.8 19.8-57.4 20.6-88.2 1-34.2-2.4-67.8-16.2-99.6-17-39.2-45.2-65-87.8-73.8-6.4-1.4-13-2-19.6-3-5.6-0.2-11-0.2-16.6-0.2z m-94.8 83.8c0-3 0.8-4.8 3.4-6.6 27.4-19 57.6-29 91.2-26.4 29.8 2.2 54.2 16.8 67 51.8 7.8 21.4 9.8 43.6 9.8 66 0 20.8-1.6 41.2-8 61.2-13.6 42.6-44.8 58.8-85.2 57-28-1.2-52.4-12-74.8-27.8-2.4-1.8-3.4-3.4-3.4-6.6 0.2-28.2 0-56.2 0-84.4 0-28 0.2-56 0-84.2zM632.6 130c-2 0.2-4 0.6-5.8 0.8-19.6 1-38.8 3.4-57.8 8.2-12.2 3.2-24 7.6-35.8 11.6-7.2 2.4-10.8 7.6-10.6 15.4 0.2 6.6-0.2 13.2 0 19.8 0.2 9.6 4.2 12.2 13.6 9.8 15.6-4 31.2-8.4 47-11.4 24.6-4.6 49.4-6.6 74.4-2.8 13 2 25.2 5.8 33.6 16.8 7.4 9.6 10.2 21 10.6 32.8 0.6 16.6 0.4 33.2 0.6 49.8 0 0.8-0.2 1.8-0.4 2.8-1-0.2-1.8 0-2.6-0.2-21-5-42.2-8.6-64-9.8-22.6-1.2-45 0.2-66.6 7.8-25.8 9-46.6 24.6-58.8 49.8-9.4 19.6-10.8 40.4-7.8 61.4 4 28 18 49.6 42.8 63.4 23.8 13.2 49.6 14.8 75.8 10.8 30.2-4.6 57-17.4 80.6-36.8 0.8-0.8 1.8-1.4 3.2-2.2 1.2 7.6 2.2 14.8 3.6 22 1.2 6.2 5 10.2 10.8 10.4 10.8 0.2 21.8 0.2 32.6 0 5.4-0.2 9-3.8 9.6-9.4 0.2-1.8 0.2-3.8 0.2-5.6v-212c0-8.6-0.4-17.2-1.8-25.8-3.8-25.8-14.8-47-38-60.8-13.4-8-28.2-12-43.6-14.2-7.2-1-14.4-1.6-21.6-2.6-7.8 0.2-15.8 0.2-23.8 0.2z m70 255.4c0 2.6-0.8 4.4-3 6-22.4 16.2-47 27-74.8 29.8-11.4 1.2-22.8 0.8-33.6-3.6-12.6-5-20.8-13.8-24.8-26.6s-4-26-0.2-38.8c5-16.6 16.8-26 32.8-31.2 16.2-5.2 33-6 49.6-4.4 16.8 1.4 33.2 4.6 50 6.8 3.2 0.4 4.2 2 4.2 5.2-0.2 9.6 0 19 0 28.6-0.2 9.4-0.4 18.8-0.2 28.2z m519.8 258.8c-2-10-9.6-13.8-18.2-16.6-13.6-4.6-27.8-6.6-42-7.8-26.2-2.2-52.4-1-78.4 3.8-28.6 5.4-55.8 14.6-80 31.2-2.8 2-5.6 4.2-7.4 7-1.4 2.2-1.8 5.6-1 8 0.8 3 4.2 3.8 7.2 3.6 1.4 0 3 0 4.4-0.2 15.6-1.6 31-3.4 46.6-5 22.8-2.2 45.8-3.6 68.6-1.8 9.6 0.6 19.4 2.8 28.8 5.4 10.2 2.8 14.8 10.4 15.2 20.8 0.8 16-2.8 31.4-7 46.6-8.2 30.8-20 60.6-31.6 90.2-0.8 2-1.6 4-2 6-1 5.8 2.4 9.6 8.2 8.2 3.4-0.8 7.2-2.6 9.6-5 8.8-8.6 17.8-17.2 25.4-26.8 25.6-32.8 40.6-70.6 49.4-111.2 1.6-7.2 2.8-14.6 4.2-21.8v-34.6zM958.2 397.8c-25.8-71.4-51.6-143-77.4-214.4-4-11.4-8.4-22.6-12.6-33.8-2.2-5.8-6.4-9.6-12.8-9.6-15.2-0.2-30.4-0.4-45.8-0.2-5 0-7.4 4-6.4 9 1 4.2 2.2 8.2 3.8 12.2 39.2 97 78.6 194.2 118.2 291 3.4 8.2 4.2 15.2 0.4 23.6-6.6 14.6-11.8 30-18.6 44.6-6 13-16 22.8-30.4 26.6-10.2 2.8-20.4 3.2-30.8 2.2-5-0.4-10-1.6-15-2-6.8-0.4-10.2 2.6-10.4 9.6-0.2 6.6-0.2 13.2 0 19.8 0.2 11 4 16 14.8 17.8 11.2 2 22.6 3.8 33.8 4 34.2 0.8 61.4-13 79-42.8 7-11.8 13.4-24.2 18.4-36.8 47.4-119.6 94.2-239.4 141.2-359.2 1.4-3.6 2.6-7.2 3.2-11 0.8-5.6-1.8-8.8-7.4-8.8-13.2-0.2-26.6 0-39.8 0-7.4 0-12.6 3.2-15.4 10.4-1 2.8-2.2 5.4-3.2 8.2-23.2 66.6-46.4 133.2-69.6 200-5 14.4-10.2 29-15.4 44.4-0.8-2.2-1.2-3.4-1.8-4.8z" p-id="3089"></path></svg>