<?xml version="1.0" standalone="no"?><!DOCTYPE svg PUBLIC "-//W3C//DTD SVG 1.1//EN" "http://www.w3.org/Graphics/SVG/1.1/DTD/svg11.dtd"><svg t="1602711443644" class="icon" viewBox="0 0 3792 1024" version="1.1" xmlns="http://www.w3.org/2000/svg" p-id="7312" xmlns:xlink="http://www.w3.org/1999/xlink" width="59.25" height="16"><defs><style type="text/css"></style></defs><path d="M485.451852 0C606.814815 0 720.592593 64.474074 705.422222 227.555556c-18.962963 193.422222-125.155556 299.614815-292.029629 303.407407H269.274074c-22.755556 0-30.340741 15.17037-37.925926 53.096296L204.8 758.518519c-3.792593 26.548148-18.962963 37.925926-37.925926 37.925925H30.340741c-22.755556 0-30.340741-15.17037-22.755556-45.511111L117.57037 49.303704C121.362963 15.17037 136.533333 0 159.288889 0h326.162963zM261.688889 379.259259h109.985185c68.266667-3.792593 113.777778-49.303704 117.57037-132.74074 3.792593-53.096296-34.133333-91.022222-91.022222-91.022223H295.822222L261.688889 379.259259z m811.614815 364.088889c11.377778-11.377778 26.548148-15.17037 22.755555-3.792592l-3.792592 34.133333c-3.792593 18.962963 3.792593 26.548148 18.962963 26.548148h121.362963c18.962963 0 30.340741-7.585185 34.133333-37.925926l75.851852-458.903704c3.792593-22.755556-3.792593-34.133333-18.962963-34.133333h-132.740741c-11.377778 0-18.962963 7.585185-18.962963 22.755556l-3.792592 26.548148c-3.792593 15.17037-7.585185 18.962963-15.170371 3.792592-22.755556-53.096296-79.644444-75.851852-159.288889-75.851851-185.837037 3.792593-310.992593 144.118519-322.37037 318.577777-11.377778 136.533333 91.022222 246.518519 219.97037 246.518519 91.022222 3.792593 132.740741-22.755556 182.044445-68.266667z m-102.4-68.266667c-79.644444 0-136.533333-64.474074-125.155556-140.325925 11.377778-75.851852 87.22963-140.325926 166.874074-140.325926 79.644444 0 136.533333 64.474074 125.155556 140.325926-11.377778 75.851852-87.22963 140.325926-166.874074 140.325925z m606.814815-405.807407h-121.362963c-26.548148 0-34.133333 18.962963-26.548149 41.718519l151.703704 436.148148-147.911111 208.592592c-11.377778 18.962963-3.792593 34.133333 15.17037 34.133334h136.533334c18.962963 0 30.340741-3.792593 41.718518-18.962963L2085.925926 310.992593c15.17037-18.962963 7.585185-41.718519-15.17037-41.718519h-128.948149c-22.755556 0-30.340741 7.585185-45.511111 26.548148l-193.422222 276.859259-87.22963-276.859259c-3.792593-18.962963-15.17037-26.548148-37.925925-26.548148z" fill="#113984" p-id="7313"></path><path d="M2571.377778 0C2692.740741 0 2806.518519 64.474074 2791.348148 227.555556c-18.962963 193.422222-125.155556 299.614815-292.029629 303.407407h-144.118519c-22.755556 0-30.340741 15.17037-37.925926 53.096296l-26.548148 174.45926c-3.792593 26.548148-18.962963 37.925926-37.925926 37.925925h-136.533333c-22.755556 0-30.340741-15.17037-22.755556-45.511111l113.777778-705.422222c3.792593-30.340741 15.17037-45.511111 41.718518-45.511111h322.370371zM2351.407407 379.259259h109.985186c68.266667-3.792593 113.777778-49.303704 117.57037-132.74074 3.792593-53.096296-34.133333-91.022222-91.022222-91.022223h-102.4L2351.407407 379.259259z m807.822223 364.088889c11.377778-11.377778 26.548148-15.17037 22.755555-3.792592l-3.792592 34.133333c-3.792593 18.962963 3.792593 26.548148 18.962963 26.548148h121.362963c18.962963 0 30.340741-7.585185 34.133333-37.925926l75.851852-458.903704c3.792593-22.755556-3.792593-34.133333-18.962963-34.133333h-132.740741c-11.377778 0-18.962963 7.585185-18.962963 22.755556l-3.792593 26.548148c-3.792593 15.17037-7.585185 18.962963-15.17037 3.792592-22.755556-53.096296-79.644444-75.851852-159.288889-75.851851-185.837037 3.792593-310.992593 144.118519-322.37037 318.577777-11.377778 136.533333 91.022222 246.518519 219.97037 246.518519 91.022222 3.792593 136.533333-22.755556 182.044445-68.266667z m-98.607408-68.266667c-79.644444 0-136.533333-64.474074-125.155555-140.325925 11.377778-75.851852 87.22963-140.325926 166.874074-140.325926 79.644444 0 136.533333 64.474074 125.155555 140.325926-15.17037 75.851852-87.22963 140.325926-166.874074 140.325925z m553.718519 125.155556h-140.325926c-11.377778 0-18.962963-7.585185-18.962963-18.962963l121.362963-758.518518c0-11.377778 11.377778-18.962963 22.755555-18.962963h140.325926c11.377778 0 18.962963 7.585185 15.170371 18.962963l-121.362963 758.518518c3.792593 11.377778-7.585185 18.962963-18.962963 18.962963z" fill="#009DE2" p-id="7314"></path></svg>