<?xml version="1.0" encoding="UTF-8"?>
<!-- Uploaded to: SVG Repo, www.svgrepo.com, Generator: SVG Repo Mixer Tools -->
<svg width="800px" height="800px" viewBox="0 0 24 24" version="1.1" xmlns="http://www.w3.org/2000/svg" xmlns:xlink="http://www.w3.org/1999/xlink">
    <title>Phone</title>
    <g id="Page-1" stroke="none" stroke-width="1" fill="none" fill-rule="evenodd">
        <g id="Phone">
            <rect id="Rectangle" fill-rule="nonzero" x="0" y="0" width="24" height="24">

</rect>
            <path d="M18.6651,14.3466 C17.8945,14.2485 17.1381,14.0605 16.4112,13.7866 C15.8203,13.5691 15.1569,13.709 14.7042,14.1466 L14.7042,14.1466 C14.1064,14.7522 13.1672,14.8918 12.4794,14.3909 C11.3931,13.5997 10.4369,12.6438 9.64561,11.5577 C9.1446,10.8701 9.28421,9.93092 9.8898,9.33332 L9.8898,9.33332 C10.3194,8.88183 10.4586,8.22718 10.2499,7.64 C9.95089,6.89845 9.7405,6.1242 9.62308,5.33334 C9.46986,4.55683 8.78769,3.99781 7.99605,4.00000353 L5.60885,4.00000353 C5.15395,3.99945 4.71925,4.18778 4.40859,4.52001 C4.10745,4.85378 3.96205,5.29958 4.0085,5.74667 C4.2665,8.2296 5.11223,10.6154 6.47571,12.7066 C7.71227,14.6494 9.3603,16.297 11.3034,17.5333 C13.3979,18.881 15.7761,19.7253 18.2517,20.0000352 L18.385,20.0000352 C18.7907,20.0027 19.182,19.85 19.4786,19.5733 C19.8116,19.2688 20.0004,18.8378 19.9987,18.3866 L19.9987,16.0000035 C20.0309,15.1928 19.4609,14.4862 18.6651,14.3466 Z" id="Path" stroke="#0C0310" stroke-width="2" stroke-linecap="round">

</path>
        </g>
    </g>
</svg>