<?xml version="1.0" standalone="no"?><!DOCTYPE svg PUBLIC "-//W3C//DTD SVG 1.1//EN" "http://www.w3.org/Graphics/SVG/1.1/DTD/svg11.dtd"><svg t="1602709647850" class="icon" viewBox="0 0 1024 1024" version="1.1" xmlns="http://www.w3.org/2000/svg" p-id="3588" xmlns:xlink="http://www.w3.org/1999/xlink" width="16" height="16"><defs><style type="text/css"></style></defs><path d="M938.666667 716.8c-10.24 0-17.066667-6.826667-17.066667-17.066667s6.826667-17.066667 17.066667-17.066666c23.893333 0 51.2-6.826667 51.2-68.266667v-102.4c0-37.546667-30.72-68.266667-68.266667-68.266667h-85.333333c-37.546667 0-75.093333-13.653333-102.4-40.96L638.293333 307.2c-20.48-20.48-47.786667-34.133333-78.506666-34.133333H300.373333c-17.066667 0-27.306667 10.24-27.306666 23.893333v129.706667c0 10.24-6.826667 17.066667-17.066667 17.066666H34.133333v208.213334c3.413333 6.826667 20.48 30.72 68.266667 30.72 10.24 0 17.066667 6.826667 17.066667 17.066666s-6.826667 17.066667-17.066667 17.066667c-81.92 0-102.4-51.2-102.4-54.613333v-238.933334c0-6.826667 6.826667-13.653333 17.066667-13.653333H238.933333V300.373333C238.933333 266.24 266.24 238.933333 300.373333 238.933333h259.413334c37.546667 0 75.093333 13.653333 102.4 40.96l95.573333 95.573334c20.48 20.48 47.786667 34.133333 78.506667 34.133333H921.6c58.026667 0 102.4 44.373333 102.4 102.4v102.4c0 88.746667-54.613333 102.4-85.333333 102.4z" p-id="3589"></path><path d="M733.866667 716.8h-409.6c-10.24 0-17.066667-6.826667-17.066667-17.066667s6.826667-17.066667 17.066667-17.066666h409.6c10.24 0 17.066667 6.826667 17.066666 17.066666s-6.826667 17.066667-17.066666 17.066667zM529.066667 546.133333h-34.133334c-10.24 0-17.066667-6.826667-17.066666-17.066666s6.826667-17.066667 17.066666-17.066667h34.133334c10.24 0 17.066667 6.826667 17.066666 17.066667s-6.826667 17.066667-17.066666 17.066666zM665.6 443.733333h-170.666667c-10.24 0-17.066667-6.826667-17.066666-17.066666v-68.266667c0-10.24 6.826667-17.066667 17.066666-17.066667s17.066667 6.826667 17.066667 17.066667V409.6h153.6c10.24 0 17.066667 6.826667 17.066667 17.066667s-6.826667 17.066667-17.066667 17.066666z" p-id="3590"></path><path d="M836.266667 785.066667c-64.853333 0-119.466667-54.613333-119.466667-119.466667s54.613333-119.466667 119.466667-119.466667 119.466667 54.613333 119.466666 119.466667-54.613333 119.466667-119.466666 119.466667z m0-204.8c-47.786667 0-85.333333 37.546667-85.333334 85.333333s37.546667 85.333333 85.333334 85.333333 85.333333-37.546667 85.333333-85.333333-37.546667-85.333333-85.333333-85.333333zM221.866667 785.066667C157.013333 785.066667 102.4 730.453333 102.4 665.6S157.013333 546.133333 221.866667 546.133333s119.466667 54.613333 119.466666 119.466667S286.72 785.066667 221.866667 785.066667z m0-204.8C174.08 580.266667 136.533333 617.813333 136.533333 665.6S174.08 750.933333 221.866667 750.933333 307.2 713.386667 307.2 665.6 269.653333 580.266667 221.866667 580.266667z" p-id="3591"></path></svg>