<?xml version="1.0" standalone="no"?><!DOCTYPE svg PUBLIC "-//W3C//DTD SVG 1.1//EN" "http://www.w3.org/Graphics/SVG/1.1/DTD/svg11.dtd"><svg t="1604587722455" class="icon" viewBox="0 0 1024 1024" version="1.1" xmlns="http://www.w3.org/2000/svg" p-id="5885" xmlns:xlink="http://www.w3.org/1999/xlink" width="16" height="16"><defs><style type="text/css"></style></defs><path d="M498.036364 444.509091c-20.945455 0-41.890909-4.654545-58.181819-11.636364L118.690909 274.618182c-20.945455-11.636364-34.909091-27.927273-34.909091-46.545455s11.636364-37.236364 34.909091-48.872727L442.181818 13.963636c18.618182-9.309091 39.563636-13.963636 62.836364-13.963636 20.945455 0 41.890909 4.654545 58.181818 11.636364L884.363636 169.890909c20.945455 11.636364 34.909091 27.927273 34.909091 46.545455s-11.636364 37.236364-34.909091 48.872727l-323.490909 165.236364c-18.618182 9.309091-39.563636 13.963636-62.836363 13.963636zM141.963636 225.745455l321.163637 158.254545c9.309091 4.654545 20.945455 6.981818 34.909091 6.981818s27.927273-2.327273 37.236363-6.981818l325.818182-165.236364-321.163636-158.254545c-9.309091-4.654545-20.945455-6.981818-34.909091-6.981818s-27.927273 2.327273-37.236364 6.981818l-325.818182 165.236364zM432.872727 1024c-11.636364 0-23.272727-2.327273-34.909091-9.309091L109.381818 863.418182c-34.909091-16.290909-60.509091-53.527273-60.509091-83.781818V374.690909c0-27.927273 20.945455-48.872727 51.2-48.872727 11.636364 0 23.272727 2.327273 34.909091 9.309091l286.254546 151.272727c34.909091 16.290909 60.509091 53.527273 60.509091 83.781818v404.945455c0 27.927273-20.945455 48.872727-48.872728 48.872727z m-11.636363-55.854545c2.327273 2.327273 4.654545 2.327273 6.981818 2.327272V570.181818c0-9.309091-11.636364-27.927273-30.254546-37.236363L109.381818 381.672727c-2.327273-2.327273-4.654545-2.327273-6.981818-2.327272v400.290909c0 9.309091 11.636364 27.927273 30.254545 37.236363l288.581819 151.272728z m165.236363 55.854545c-27.927273 0-48.872727-20.945455-48.872727-48.872727V570.181818c0-30.254545 25.6-67.490909 60.509091-83.781818L884.363636 335.127273c11.636364-4.654545 23.272727-9.309091 34.909091-9.309091 27.927273 0 48.872727 20.945455 48.872728 48.872727v404.945455c0 30.254545-25.6 67.490909-60.509091 83.781818l-286.254546 151.272727c-13.963636 6.981818-23.272727 9.309091-34.909091 9.309091zM907.636364 381.672727l-286.254546 151.272728c-18.618182 9.309091-30.254545 27.927273-30.254545 37.236363v400.290909c2.327273 0 4.654545-2.327273 6.981818-2.327272L884.363636 816.872727c18.618182-9.309091 30.254545-27.927273 30.254546-37.236363V379.345455c-2.327273 0-4.654545 2.327273-6.981818 2.327272z" p-id="5886" fill="#ffffff"></path></svg>