<?xml version="1.0" standalone="no"?><!DOCTYPE svg PUBLIC "-//W3C//DTD SVG 1.1//EN" "http://www.w3.org/Graphics/SVG/1.1/DTD/svg11.dtd"><svg t="1603912365245" class="icon" viewBox="0 0 1097 1024" version="1.1" xmlns="http://www.w3.org/2000/svg" p-id="6247" xmlns:xlink="http://www.w3.org/1999/xlink" width="17.140625" height="16"><defs><style type="text/css"></style></defs><path d="M349.762647 880.423238c2.194245-1.901679 3.876499-3.876499 5.85132-5.778179l0.438849-0.585132c-7.972423 7.679857-8.338131 8.338131-6.217027 6.363311z" fill="#ffffff" p-id="6248"></path><path d="M450.551633 513.472338L158.717052 375.234906l-0.950839-0.438849c-13.16547-5.85132-26.257798-8.77698-38.838136-8.77698a63.047972 63.047972 0 0 0-42.275786 15.067149 50.101927 50.101927 0 0 0-16.822545 37.814154v373.021644c0 15.432856 6.802159 32.621108 19.163073 48.27339 12.068347 15.359715 28.671468 28.232619 46.810559 36.278183l291.615156 138.237433 0.877698 0.51199h0.219424c13.238611 5.85132 26.33094 8.77698 38.764995 8.77698 16.456837 0 31.450844-5.266188 42.348927-14.994007a50.101927 50.101927 0 0 0 16.822545-37.887297V598.316477c0-15.579139-6.875301-32.69425-19.163073-48.346531a126.095944 126.095944 0 0 0-46.810559-36.351325V513.472338z m616.509693-132.386112a62.901689 62.901689 0 0 0-42.275786-14.994008c-12.653479 0-25.599525 2.92566-38.838136 8.77698L693.235126 513.472338c-18.139092 8.118706-34.66907 21.064752-46.81056 36.351325-12.287772 15.652281-19.01679 32.913674-19.016789 48.346531v372.875361c0 14.774583 5.924461 28.232619 16.822544 37.887296a62.97483 62.97483 0 0 0 42.129504 14.994008h0.219424c13.458036-0.219424 26.84293-3.291367 38.838136-8.77698l291.395731-138.749424c18.139092-8.045565 34.742212-20.99161 46.81056-36.278183 12.287772-15.652281 19.089931-32.913674 19.089931-48.419672l1.097122-372.875361a50.24821 50.24821 0 0 0-16.822544-37.814155zM963.273539 259.671338c25.818949-11.70264 40.447249-30.646288 40.374108-51.71104-0.219424-20.918469-14.847724-39.496409-40.227825-50.687059L639.110417 12.087364A160.179882 160.179882 0 0 0 575.623596 0.019017c-24.721827 0-48.565955 4.607914-67.070755 13.16547L180.659502 164.587389c-25.672666 11.848923-40.374107 30.719429-40.227824 51.784181 0.146283 20.918469 14.774583 39.423268 40.154683 50.613917l324.382547 145.259017c12.434055 5.558754 27.574345 9.28897 43.811758 10.971225l-1.170264 1.097122h20.918468c24.648685 0 48.419672-4.681056 67.070755-13.165469l327.747056-151.402903z" fill="#ffffff" p-id="6249"></path></svg>