<?xml version="1.0" standalone="no"?><!DOCTYPE svg PUBLIC "-//W3C//DTD SVG 1.1//EN" "http://www.w3.org/Graphics/SVG/1.1/DTD/svg11.dtd"><svg t="1603467130210" class="icon" viewBox="0 0 1024 1024" version="1.1" xmlns="http://www.w3.org/2000/svg" p-id="1293" xmlns:xlink="http://www.w3.org/1999/xlink" width="16" height="16"><defs><style type="text/css"></style></defs><path d="M0 0h1024v1024H0z" fill="#D8D8D8" fill-opacity=".01" p-id="1294"></path><path d="M640 704.7168V153.6a51.2 51.2 0 0 0-51.2-51.2H102.4a51.2 51.2 0 0 0-51.2 51.2v614.4h59.9296a153.6512 153.6512 0 0 1 289.7408 0h196.6592c8.704-24.576 23.4496-46.2592 42.4704-63.2832z m51.2-30.3872A153.6512 153.6512 0 0 1 887.2704 768H972.8v-186.7776L800.256 358.4H691.2v315.9296zM896 819.2a153.6 153.6 0 1 1-307.2 0h-179.2a153.6 153.6 0 1 1-307.2 0H0V153.6a102.4 102.4 0 0 1 102.4-102.4h486.4a102.4 102.4 0 0 1 102.4 102.4v153.6h134.144L1024 563.712V819.2h-128zM332.8 486.4h115.2a12.8 12.8 0 0 1 12.8 12.8v25.6a12.8 12.8 0 0 1-12.8 12.8h-153.6a12.8 12.8 0 0 1-12.8-12.8v-230.4a12.8 12.8 0 0 1 12.8-12.8h25.6a12.8 12.8 0 0 1 12.8 12.8V486.4z m-76.8 435.2a102.4 102.4 0 1 0 0-204.8 102.4 102.4 0 0 0 0 204.8z m486.4 0a102.4 102.4 0 1 0 0-204.8 102.4 102.4 0 0 0 0 204.8z" fill="#333333" p-id="1295"></path></svg>