<?xml version="1.0" standalone="no"?><!DOCTYPE svg PUBLIC "-//W3C//DTD SVG 1.1//EN" "http://www.w3.org/Graphics/SVG/1.1/DTD/svg11.dtd"><svg t="1623767686664" class="icon" viewBox="0 0 1024 1024" version="1.1" xmlns="http://www.w3.org/2000/svg" p-id="2579" width="20" height="20" xmlns:xlink="http://www.w3.org/1999/xlink"><defs><style type="text/css"></style></defs><path d="M938.666667 333.653333a53.333333 53.333333 0 0 0 0-8.106666l-85.333334-213.333334A42.666667 42.666667 0 0 0 810.666667 85.333333H213.333333a42.666667 42.666667 0 0 0-39.68 26.88l-85.333333 213.333334a53.333333 53.333333 0 0 0 0 8.106666A24.746667 24.746667 0 0 0 85.333333 341.333333a170.666667 170.666667 0 0 0 85.333334 145.066667V896a42.666667 42.666667 0 0 0 42.666666 42.666667h597.333334a42.666667 42.666667 0 0 0 42.666666-42.666667v-407.893333A170.666667 170.666667 0 0 0 938.666667 341.333333a24.746667 24.746667 0 0 0 0-7.68zM554.666667 853.333333h-85.333334v-170.666666h85.333334z m213.333333 0h-128v-213.333333a42.666667 42.666667 0 0 0-42.666667-42.666667h-170.666666a42.666667 42.666667 0 0 0-42.666667 42.666667v213.333333H256v-341.333333a170.666667 170.666667 0 0 0 128-58.88 170.666667 170.666667 0 0 0 256 0A170.666667 170.666667 0 0 0 768 512z m0-426.666666a85.333333 85.333333 0 0 1-85.333333-85.333334 42.666667 42.666667 0 0 0-85.333334 0 85.333333 85.333333 0 0 1-170.666666 0 42.666667 42.666667 0 0 0-85.333334 0 85.333333 85.333333 0 0 1-170.666666 6.4L242.346667 170.666667h539.306666L853.333333 347.733333A85.333333 85.333333 0 0 1 768 426.666667z" p-id="2580" fill="#8a8a8a"></path></svg>