<?xml version="1.0" standalone="no"?><!DOCTYPE svg PUBLIC "-//W3C//DTD SVG 1.1//EN" "http://www.w3.org/Graphics/SVG/1.1/DTD/svg11.dtd"><svg t="1602711706176" class="icon" viewBox="0 0 3584 1024" version="1.1" xmlns="http://www.w3.org/2000/svg" p-id="8232" xmlns:xlink="http://www.w3.org/1999/xlink" width="56" height="16"><defs><style type="text/css"></style></defs><path d="M294.656 7.0912h228.7104L199.936 680.6528c-15.872 50.4832-3.7888 93.056 12.288 113.8176 16.128 20.7872 53.8112 51.3792 105.6768 51.3792 5.632 0 72.2688 5.8368 125.9008-8.448 46.0288-12.288 62.208-25.6 84.6336-53.3248 22.4256-27.7248 31.7952-44.8 43.648-69.3248C607.0528 642.3808 717.6704 404.1216 903.936 0h240.2816L820.736 700.5184c-50.3296 110.9504-129.024 201.216-189.3632 243.5072-35.4304 24.832-135.168 65.3824-237.7728 71.8848-96.6656 6.144-147.712-0.256-233.728-27.8784-76.544-24.576-181.632-153.0368-155.904-298.4448 10.752-60.7744 28.9024-112.896 37.12-130.6624C99.456 432.4608 183.9872 248.5248 294.656 7.0912z m1900.928 0h109.952c89.9072 0 214.656 16.7936 274.0992 58.5984 59.4432 41.7792 116.736 91.2384 142.0288 168.4992 25.3184 77.2608 30.5152 149.2992 20.992 237.8752-16.8192 156.1856-130.8672 336.8448-270.848 424.704-34.8416 21.8624-101.8112 64.9216-188.672 91.264C2196.224 1014.4 2089.4464 1024 2069.0432 1024H1764.352L2195.584 7.0912zM2054.656 7.4496L1944.32 220.7232H1396.224L1295.36 433.9968l333.4912 1.9712c42.0864 0 116.0704 6.8352 149.8112 23.2192 49.8176 24.192 49.8176 122.112 33.3568 164.4288-2.7904 7.168-10.0352 29.952-15.36 39.6544-21.3504 38.8096-32.768 71.808-82.944 149.9648-74.6496 116.3264-92.3648 142.1824-108.032 153.9328-38.912 29.184-83.6096 40.704-163.2512 44.5696H799.3856l96-175.9488H1424.128l135.2192-226.1504H1135.8208c-45.2864 0-71.9104-14.3616-94.7712-55.9616-22.8864-41.5744 9.1136-134.4 28.7744-161.0496l105.0368-224.512c18.432-29.8496 51.968-108.7488 96.8704-137.216C1316.6592 2.3552 1368.3968 7.424 1409.3568 7.424H2054.656z m299.6224 197.1968L2084.7104 824.9856h87.4752c37.6832 0 121.472-22.0672 191.8208-72.3712 57.1136-40.832 148.8384-156.3392 181.0688-264.4992 25.9328-86.9376-0.256-170.9312-9.9328-193.92-21.76-51.6096-88.2688-89.5488-149.1968-89.5488h-31.6928zM2913.152 7.0912h649.2928l-80.8704 206.3104h-208.5632L3003.4944 1024h-239.5392l269.5424-810.5984h-201.216l80.8704-206.3104z" fill="#2A3D52" p-id="8233"></path></svg>