<?xml version="1.0" standalone="no"?><!DOCTYPE svg PUBLIC "-//W3C//DTD SVG 1.1//EN" "http://www.w3.org/Graphics/SVG/1.1/DTD/svg11.dtd"><svg t="1604591271502" class="icon" viewBox="0 0 1024 1024" version="1.1" xmlns="http://www.w3.org/2000/svg" p-id="4774" xmlns:xlink="http://www.w3.org/1999/xlink" width="16" height="16"><defs><style type="text/css"></style></defs><path d="M100.218036 795.96002l262.909977-142.960987v-8.369c-112.27799-85.775992-127.619989-240.592979-127.619989-364.724968A251.053978 251.053978 0 0 1 506.786 0.95709h9.065A251.749978 251.749978 0 0 1 787.129976 279.905065c0 126.921989-15.341999 278.948975-127.619989 367.514968v8.367999L921.721964 798.75002a69.736994 69.736994 0 0 1 36.960997 62.065994v93.447992A69.736994 69.736994 0 0 1 888.944967 1024h-755.949934a69.736994 69.736994 0 0 1-69.736994-69.736994v-96.236991a69.736994 69.736994 0 0 1 36.959997-62.065995z m216.882981-521.633954c0 120.644989 12.551999 252.448978 109.486991 313.816972a43.236996 43.236996 0 0 1 18.828998 35.565997v69.736994c0 14.644999-11.854999 28.591997-36.959997 41.841996a1457.504872 1457.504872 0 0 0-255.237977 135.987988v73.920994h714.804937v-76.012993A1711.34785 1711.34785 0 0 0 614.179991 733.196026q-37.657997-20.222998-37.657997-41.841997v-69.736994a42.539996 42.539996 0 0 1 19.525999-35.565997c94.842992-59.275995 109.48699-191.079983 109.48699-311.724972A170.158985 170.158985 0 0 0 515.851 80.457083h-9.065c-126.224989 0-189.684983 65.552994-189.684983 193.869983z" p-id="4775" fill="#8a8a8a"></path></svg>