<?xml version="1.0" standalone="no"?><!DOCTYPE svg PUBLIC "-//W3C//DTD SVG 1.1//EN" "http://www.w3.org/Graphics/SVG/1.1/DTD/svg11.dtd"><svg t="1602711181340" class="icon" viewBox="0 0 1560 1024" version="1.1" xmlns="http://www.w3.org/2000/svg" p-id="5397" xmlns:xlink="http://www.w3.org/1999/xlink" width="24.375" height="16"><defs><style type="text/css"></style></defs><path d="M1296.086491 1023.996099H118.00336A117.028126 117.028126 0 0 1 0 907.943208V213.576329A117.028126 117.028126 0 0 1 118.00336 97.523438h1178.083131A117.028126 117.028126 0 0 1 1414.089851 213.576329v694.854496A117.028126 117.028126 0 0 1 1296.086491 1023.996099z" fill="#F6F9FC" p-id="5398"></path><path d="M0 877.710942v30.719883A117.028126 117.028126 0 0 0 118.00336 1023.996099h1178.083131A117.028126 117.028126 0 0 0 1414.089851 907.943208V877.710942H0z" fill="#F99F1B" p-id="5399"></path><path d="M0 243.808595v-30.719883A117.028126 117.028126 0 0 1 118.00336 97.523438h1178.083131A117.028126 117.028126 0 0 1 1414.089851 213.576329V243.808595H0z m677.787894 152.136563l-72.167344 330.116838h-86.308243l71.19211-330.116838h86.79586z m364.250041 213.57633l45.836016-124.342384 26.331328 124.342384h-72.167344z m97.035821 117.028125H1219.042975l-70.216875-330.604455h-73.630196a39.009375 39.009375 0 0 0-37.058906 24.38086l-130.19379 305.735978h91.184414l18.041836-48.761719h111.17672l10.727578 48.761719z m-226.254376-108.251016c0-86.79586-122.391915-91.672032-121.904298-130.681407 0.487617-11.702813 12.19043-24.38086 37.058907-27.79418a165.789845 165.789845 0 0 1 85.333008 14.628516l15.116133-69.729258c-20.479922-7.314258-47.298867-14.628516-80.944454-14.628516-85.820625 0-146.285157 44.860781-146.285157 109.226251-0.487617 47.298867 42.910313 74.117813 75.580665 89.721563 34.133203 16.091367 45.348399 26.818945 45.348398 40.959844-0.487617 22.430391-27.306563 32.182735-52.175039 32.182734-43.885547 0.975234-68.754024-11.215195-88.746329-20.479922l-16.091367 72.167344c20.479922 9.264727 58.026446 17.066602 96.548204 17.554219 91.184415 0 150.673712-43.885547 151.161329-113.127188z m-359.373869-222.353439L413.01176 726.549613H321.827345L252.585704 463.236331c-4.388555-16.091367-8.289492-21.942774-20.967539-29.257032A367.175744 367.175744 0 0 0 146.285157 406.185119l1.950469-9.752344h147.748008c18.529453 0 35.596055 12.678047 39.98461 34.133204l36.571289 190.658321 90.20918-224.303907h90.696798z" fill="#2D4990" p-id="5400"></path></svg>